# xmcd
#
# Track frame offsets:
#	150
#	14391
#	28837
#	42383
#	58067
#	76202
#	92038
#	103845
#	119441
#	131656
#	142278
#	152169
#	166168
#	179442
#	192970
#	205814
#
# Disc length: 3031
#
# Revision: 1
# Processed by: cddbd v1.5.1PL0 Copyright (c) Steve Scherf et al.
# Submitted via: CDex 1.51
# Normalized: r0:DSETVAR1,TDELIM( - )
#
DISCID=e50bd510
DTITLE=Various Artist - American Songbook Disk Three Music Of Irving Berlin
DYEAR=2001
DGENRE=Jazz
TTITLE0=Billie Holiday - This Year's Kisses
TTITLE1=The Mills Brothers - The Song Has Ended
TTITLE2=Mel Torme - I've Got The Sun In The Morning
TTITLE3=Errol Garner - How Deep Is The Ocean
TTITLE4=Sarah Vaughan - Alexander's Ragtime Band
TTITLE5=Rosemary Clooney - Count Your Blessings
TTITLE6=Duke Ellington - Blue Skies
TTITLE7=Ethel Waters - Harlem On My Mind
TTITLE8=Dean Martin - I've Got My Love To Keep Me Warm
TTITLE9=Tommy Dorsey - Marie
TTITLE10=Judy Garland - Puttin' On The Ritz
TTITLE11=Frank Sinatra - They Say It's Wonderful
TTITLE12=Ella Fitzgerald - Pack Up Your Sins And Go To The Devil
TTITLE13=Peggy Lee - I Threw A Kiss In The Ocean
TTITLE14=Bing Crosby - Easter Parade
TTITLE15=Charlie Parker - White Christmas
EXTD=YEAR: 2001
EXTT0=
EXTT1=
EXTT2=
EXTT3=
EXTT4=
EXTT5=
EXTT6=
EXTT7=
EXTT8=
EXTT9=
EXTT10=
EXTT11=
EXTT12=
EXTT13=
EXTT14=
EXTT15=
PLAYORDER=
